<?xml version="1.0" encoding="utf-8"?>
<!-- Generator: Adobe Illustrator 22.0.1, SVG Export Plug-In . SVG Version: 6.00 Build 0)  -->
<svg version="1.1" id="Layer_1" xmlns="http://www.w3.org/2000/svg" xmlns:xlink="http://www.w3.org/1999/xlink" x="0px" y="0px"
	 viewBox="0 0 804 159.9" style="enable-background:new 0 0 804 159.9;" xml:space="preserve">
<style type="text/css">
	.st0{enable-background:new    ;}
	.st1{fill:#0A2342;}
	.st2{fill:#335C81;}
	.st3{fill:#64839B;}
	.st4{fill:#1F364F;}
</style>
<g class="st0">
	<path class="st1" d="M44.2,18.1c2,0.8,4.1,1.8,6.2,3.3c1.7,1.1,3.1,1.7,4,1.7c0.7,0,1.3-0.4,1.7-1.2c0.4-0.8,0.7-2.1,0.9-4h2.7
		c-0.4,4.6-0.6,12.6-0.6,24.1h-2.7c-0.5-6.4-2.3-11.8-5.5-16.1c-3.2-4.4-7.8-6.6-13.9-6.6c-4.3,0-7.7,1.3-10.4,3.8
		c-2.7,2.6-4,5.9-4,9.9c0,3,0.7,5.6,2.1,7.8c1.4,2.2,3.1,4.1,5.3,5.7c2.1,1.6,5.2,3.6,9.1,6l3.4,2.1c5,3.1,8.9,5.8,11.8,8.1
		c2.9,2.3,5.2,5,6.9,8c1.7,3,2.6,6.5,2.6,10.5c0,7.2-2.4,12.7-7.1,16.6c-4.7,3.9-10.7,5.9-18,5.9c-3.8,0-6.9-0.4-9.3-1.2
		c-2.4-0.8-4.7-1.9-6.9-3.2c-1.7-1.1-3.1-1.7-4-1.7c-0.7,0-1.3,0.4-1.7,1.2c-0.4,0.8-0.7,2.1-0.9,4h-2.7c0.3-4.3,0.5-13.8,0.5-28.4
		h2.7c0.6,8,2.5,14.4,5.9,19.4c3.4,5,8.6,7.4,15.6,7.4c4.3,0,7.9-1.3,10.9-4c3-2.6,4.5-6.6,4.5-11.8c0-4.4-1.5-8.2-4.4-11.2
		s-7.6-6.5-14-10.4c-4.7-2.8-8.4-5.4-11.3-7.6c-2.9-2.2-5.2-4.9-7-8c-1.8-3.1-2.7-6.8-2.7-10.9c0-6.6,2.1-11.7,6.4-15.2
		C24.4,18.7,29.7,17,36,17C39.4,17,42.2,17.3,44.2,18.1z"/>
	<path class="st1" d="M92.6,90.9c0,3.2,0.7,5.5,2,6.7c1.3,1.2,3.7,1.8,7,1.8v2.5c-7.3-0.3-12-0.5-14.3-0.5c-2.3,0-7.1,0.2-14.3,0.5
		v-2.5c3.3,0,5.6-0.6,7-1.8c1.3-1.2,2-3.4,2-6.7V54c0-3.6-0.7-6.3-2-7.9c-1.3-1.7-3.7-2.5-7-2.5v-2.5c2.5,0.2,5,0.4,7.3,0.4
		c5,0,9.1-0.5,12.3-1.7V90.9z M91.8,13.8c1.5,1.5,2.2,3.3,2.2,5.3c0,2-0.7,3.8-2.2,5.3c-1.5,1.5-3.3,2.2-5.3,2.2
		c-2.1,0-3.8-0.7-5.3-2.2c-1.5-1.5-2.2-3.3-2.2-5.3c0-2,0.7-3.8,2.2-5.3c1.5-1.5,3.3-2.2,5.3-2.2C88.5,11.5,90.3,12.3,91.8,13.8z"/>
	<path class="st1" d="M200.4,97.6c1.3,1.2,3.7,1.8,7,1.8v2.5c-7.3-0.3-12-0.5-14.2-0.5c-2.2,0-6.6,0.2-13.2,0.5v-2.5
		c2.9,0,4.9-0.6,6.1-1.8c1.1-1.2,1.7-3.4,1.7-6.7V56.8c0-3-0.2-5.4-0.5-7.3c-0.4-1.9-1.2-3.4-2.5-4.6c-1.3-1.2-3.3-1.8-6-1.8
		c-3,0-5.7,0.9-8.2,2.8c-2.4,1.9-4.4,4.5-5.7,7.7c-1.4,3.3-2.1,6.9-2.1,10.8v26.4c0,3.2,0.7,5.5,2,6.7c1.3,1.2,3.7,1.8,7,1.8v2.5
		c-7.3-0.3-12-0.5-14.2-0.5c-2.2,0-6.6,0.2-13.2,0.5v-2.5c2.9,0,4.9-0.6,6.1-1.8c1.1-1.2,1.7-3.4,1.7-6.7V56.8c0-3-0.2-5.4-0.5-7.3
		c-0.4-1.9-1.2-3.4-2.5-4.6c-1.3-1.2-3.3-1.8-6-1.8c-3,0-5.7,0.9-8.2,2.8c-2.4,1.9-4.4,4.5-5.7,7.8c-1.4,3.3-2.1,6.9-2.1,10.9v26.2
		c0,3.2,0.6,5.5,1.7,6.7c1.1,1.2,3.2,1.8,6.1,1.8v2.5c-6.6-0.3-11-0.5-13.2-0.5c-2.2,0-6.9,0.2-14.2,0.5v-2.5c3.3,0,5.6-0.6,7-1.8
		c1.3-1.2,2-3.4,2-6.7V54c0-3.6-0.7-6.3-2-7.9c-1.3-1.7-3.7-2.5-7-2.5v-2.5c2.5,0.2,5,0.4,7.3,0.4c5,0,9.1-0.5,12.3-1.7v13.9
		c1.9-4.9,4.6-8.5,8-10.8c3.5-2.3,7.2-3.5,11.3-3.5c5.4,0,9.5,1.5,12.3,4.5c2,2,3.2,5.2,3.7,9.5c2-5,4.7-8.5,8.2-10.7
		c3.5-2.2,7.3-3.3,11.5-3.3c5.4,0,9.5,1.5,12.3,4.5c1.4,1.6,2.4,3.6,3,6c0.6,2.4,0.9,5.6,0.9,9.5v31.6
		C198.4,94.2,199,96.4,200.4,97.6z"/>
	<path class="st1" d="M261.6,42.8c3.3,2.3,6,5.6,7.9,10c1.9,4.4,2.8,9.7,2.8,15.8c0,6.1-1,11.7-2.9,17c-1.9,5.3-4.9,9.6-9,12.9
		c-4.1,3.3-9.1,5-15.2,5c-3,0-5.7-0.6-8.2-1.8c-2.4-1.2-4.3-2.7-5.7-4.6v15.1c0,3.2,0.9,5.5,2.8,6.7c1.9,1.2,4.7,1.8,8.5,1.8v2.5
		l-2.7-0.1c-7.3-0.2-12.1-0.4-14.3-0.4c-1.9,0-6.1,0.2-12.8,0.5v-2.5c2.9,0,4.9-0.5,6.1-1.6c1.1-1.1,1.7-3,1.7-5.7V54
		c0-3.6-0.7-6.3-2-7.9c-1.3-1.7-3.7-2.5-7-2.5v-2.5c2.4,0.2,4.9,0.4,7.3,0.4c5,0,9.1-0.5,12.3-1.7v12.5c1.7-4.1,4.3-7.3,7.6-9.5
		c3.3-2.2,7.1-3.4,11.3-3.4C254.4,39.4,258.2,40.6,261.6,42.8z M260.8,70.4c0-18.3-4.6-27.4-13.7-27.4c-3.5,0-6.7,1.3-9.6,3.8
		c-2.8,2.6-4.9,6.2-6.1,11.1v35.5c1.1,2.3,2.7,4.1,4.8,5.5c2.1,1.4,4.7,2.1,7.7,2.1C255.2,100.9,260.8,90.7,260.8,70.4z"/>
	<path class="st1" d="M300,90.9c0,3.2,0.7,5.5,2,6.7c1.3,1.2,3.7,1.8,7,1.8v2.5c-7.3-0.3-12-0.5-14.3-0.5c-2.3,0-7.1,0.2-14.3,0.5
		v-2.5c3.3,0,5.6-0.6,7-1.8c1.3-1.2,2-3.4,2-6.7V23.5c0-3.6-0.7-6.3-2-7.9c-1.3-1.7-3.7-2.5-7-2.5v-2.5c2.4,0.2,4.9,0.4,7.3,0.4
		c5,0,9.1-0.6,12.3-1.7V90.9z"/>
	<path class="st1" d="M365.2,87.8c-1.4,4.3-4.1,8.1-8,11.2c-3.9,3.1-8.6,4.7-14.1,4.7c-5.6,0-10.4-1.3-14.5-3.8
		c-4.1-2.6-7.2-6.1-9.4-10.8c-2.2-4.6-3.3-9.9-3.3-16c0-6.9,1.1-12.8,3.3-17.8c2.2-5,5.3-8.9,9.3-11.6c4-2.7,8.7-4.1,14.1-4.1
		c7.1,0,12.5,2.1,16.4,6.4c3.8,4.3,5.7,10.8,5.7,19.6h-37c-0.2,2.2-0.4,4.7-0.4,7.6c0,5.2,0.8,9.7,2.5,13.6c1.7,3.9,3.9,6.8,6.7,8.9
		c2.8,2.1,5.7,3.1,8.8,3.1c3.8,0,7.1-0.9,10-2.7c2.9-1.8,5.4-4.8,7.3-9.1L365.2,87.8z M332.5,47.1c-2.7,3.6-4.3,9-5,16.1h25.8
		c0.2-6.1-0.7-11.3-2.7-15.4c-1.9-4.1-4.8-6.1-8.6-6.1C338.4,41.7,335.2,43.5,332.5,47.1z"/>
	<path class="st1" d="M438.1,18.1c2,0.8,4.1,1.8,6.2,3.3c1.7,1.1,3.1,1.7,4,1.7c0.7,0,1.3-0.4,1.7-1.2c0.4-0.8,0.7-2.1,0.9-4h2.7
		c-0.4,4.6-0.6,12.6-0.6,24.1h-2.7c-0.5-6.4-2.3-11.8-5.5-16.1c-3.2-4.4-7.8-6.6-13.9-6.6c-4.3,0-7.7,1.3-10.4,3.8
		c-2.7,2.6-4,5.9-4,9.9c0,3,0.7,5.6,2.1,7.8c1.4,2.2,3.1,4.1,5.3,5.7c2.1,1.6,5.2,3.6,9.1,6l3.4,2.1c5,3.1,8.9,5.8,11.8,8.1
		c2.9,2.3,5.2,5,6.9,8c1.7,3,2.6,6.5,2.6,10.5c0,7.2-2.4,12.7-7.1,16.6c-4.7,3.9-10.7,5.9-18,5.9c-3.8,0-6.9-0.4-9.3-1.2
		c-2.4-0.8-4.7-1.9-6.9-3.2c-1.7-1.1-3.1-1.7-4-1.7c-0.7,0-1.3,0.4-1.7,1.2c-0.4,0.8-0.7,2.1-0.9,4h-2.7c0.3-4.3,0.5-13.8,0.5-28.4
		h2.7c0.6,8,2.5,14.4,5.9,19.4c3.4,5,8.6,7.4,15.6,7.4c4.3,0,7.9-1.3,10.9-4c3-2.6,4.5-6.6,4.5-11.8c0-4.4-1.5-8.2-4.4-11.2
		s-7.6-6.5-14-10.4c-4.7-2.8-8.4-5.4-11.3-7.6c-2.9-2.2-5.2-4.9-7-8c-1.8-3.1-2.7-6.8-2.7-10.9c0-6.6,2.1-11.7,6.4-15.2
		c4.3-3.5,9.5-5.3,15.8-5.3C433.4,17,436.1,17.3,438.1,18.1z"/>
	<path class="st1" d="M520.6,89.2c0,3.6,0.7,6.3,2,7.9c1.3,1.7,3.7,2.5,7,2.5v2.5c-2.4-0.2-4.9-0.4-7.3-0.4c-5,0-9.1,0.5-12.3,1.7
		V89.4c-1.9,4.9-4.6,8.5-8,10.8c-3.5,2.3-7.3,3.4-11.3,3.4c-5.4,0-9.5-1.5-12.3-4.5c-1.4-1.6-2.4-3.6-3-6c-0.6-2.4-0.9-5.6-0.9-9.5
		V54c0-3.6-0.7-6.3-2-7.9c-1.3-1.7-3.7-2.5-7-2.5v-2.5c2.4,0.2,4.9,0.4,7.3,0.4c5,0,9.1-0.5,12.3-1.7v46.5c0,3,0.2,5.4,0.5,7.3
		c0.4,1.9,1.2,3.4,2.5,4.6c1.3,1.2,3.3,1.8,6,1.8c3,0,5.7-0.9,8.2-2.8c2.4-1.9,4.4-4.5,5.7-7.7c1.4-3.3,2.1-6.9,2.1-10.8V54
		c0-3.6-0.7-6.3-2-7.9c-1.3-1.7-3.7-2.5-7-2.5v-2.5c2.4,0.2,4.9,0.4,7.3,0.4c5,0,9.1-0.5,12.3-1.7V89.2z"/>
	<path class="st1" d="M628.4,97.6c1.3,1.2,3.7,1.8,7,1.8v2.5c-7.3-0.3-12-0.5-14.2-0.5c-2.2,0-6.6,0.2-13.2,0.5v-2.5
		c2.9,0,4.9-0.6,6.1-1.8c1.1-1.2,1.7-3.4,1.7-6.7V56.8c0-3-0.2-5.4-0.5-7.3c-0.4-1.9-1.2-3.4-2.5-4.6c-1.3-1.2-3.3-1.8-6-1.8
		c-3,0-5.7,0.9-8.2,2.8c-2.4,1.9-4.4,4.5-5.7,7.7c-1.4,3.3-2.1,6.9-2.1,10.8v26.4c0,3.2,0.7,5.5,2,6.7c1.3,1.2,3.7,1.8,7,1.8v2.5
		c-7.3-0.3-12-0.5-14.2-0.5s-6.6,0.2-13.2,0.5v-2.5c2.9,0,4.9-0.6,6.1-1.8c1.1-1.2,1.7-3.4,1.7-6.7V56.8c0-3-0.2-5.4-0.5-7.3
		c-0.4-1.9-1.2-3.4-2.5-4.6c-1.3-1.2-3.3-1.8-6-1.8c-3,0-5.7,0.9-8.2,2.8c-2.4,1.9-4.4,4.5-5.7,7.8c-1.4,3.3-2.1,6.9-2.1,10.9v26.2
		c0,3.2,0.6,5.5,1.7,6.7c1.1,1.2,3.2,1.8,6.1,1.8v2.5c-6.6-0.3-11-0.5-13.2-0.5c-2.2,0-6.9,0.2-14.2,0.5v-2.5c3.3,0,5.6-0.6,7-1.8
		c1.3-1.2,2-3.4,2-6.7V54c0-3.6-0.7-6.3-2-7.9c-1.3-1.7-3.7-2.5-7-2.5v-2.5c2.5,0.2,5,0.4,7.3,0.4c5,0,9.1-0.5,12.3-1.7v13.9
		c1.9-4.9,4.6-8.5,8-10.8c3.5-2.3,7.2-3.5,11.3-3.5c5.4,0,9.5,1.5,12.3,4.5c2,2,3.2,5.2,3.7,9.5c2-5,4.7-8.5,8.2-10.7
		c3.5-2.2,7.3-3.3,11.5-3.3c5.4,0,9.5,1.5,12.3,4.5c1.4,1.6,2.4,3.6,3,6c0.6,2.4,0.9,5.6,0.9,9.5v31.6
		C626.4,94.2,627,96.4,628.4,97.6z"/>
</g>
<g class="st0">
	<path class="st2" d="M19.3,140c0.6,0.7,0.9,1.5,0.9,2.5c0,1.3-0.5,2.3-1.4,3c-0.9,0.7-2.3,1-4.2,1H7.8v-15.2h6.4
		c1.7,0,2.9,0.3,3.9,1c0.9,0.7,1.4,1.6,1.4,2.9c0,0.9-0.2,1.6-0.7,2.2c-0.5,0.6-1.1,1-1.9,1.3C17.9,138.9,18.7,139.3,19.3,140z
		 M8.9,132.3v6.1h5.2c1.3,0,2.4-0.3,3.1-0.8c0.7-0.5,1.1-1.3,1.1-2.3c0-1-0.4-1.7-1.1-2.3c-0.7-0.5-1.7-0.8-3.1-0.8H8.9z
		 M17.9,144.8c0.8-0.5,1.1-1.3,1.1-2.4s-0.4-1.9-1.1-2.4c-0.8-0.5-1.9-0.8-3.4-0.8H8.9v6.3h5.7C16,145.6,17.2,145.4,17.9,144.8z"/>
	<path class="st2" d="M27.2,145.7c-1.2-0.7-2.2-1.6-2.8-2.8c-0.7-1.2-1-2.5-1-3.9c0-1.5,0.3-2.8,1-3.9c0.7-1.2,1.6-2.1,2.8-2.8
		c1.2-0.7,2.6-1,4.1-1c1.5,0,2.8,0.3,4,1c1.2,0.7,2.2,1.6,2.8,2.8s1,2.5,1,4c0,1.5-0.3,2.8-1,4s-1.6,2.1-2.8,2.8c-1.2,0.7-2.6,1-4,1
		C29.8,146.7,28.4,146.3,27.2,145.7z M34.7,144.8c1-0.6,1.8-1.4,2.4-2.4s0.9-2.2,0.9-3.4s-0.3-2.4-0.9-3.4c-0.6-1-1.4-1.8-2.4-2.4
		c-1-0.6-2.2-0.9-3.5-0.9c-1.3,0-2.4,0.3-3.5,0.9c-1,0.6-1.9,1.4-2.4,2.4c-0.6,1-0.9,2.2-0.9,3.4s0.3,2.4,0.9,3.4s1.4,1.8,2.4,2.4
		c1,0.6,2.2,0.9,3.5,0.9C32.5,145.7,33.7,145.4,34.7,144.8z"/>
	<path class="st2" d="M46.1,145.7c-1.2-0.7-2.2-1.6-2.8-2.8c-0.7-1.2-1-2.5-1-3.9c0-1.5,0.3-2.8,1-3.9c0.7-1.2,1.6-2.1,2.8-2.8
		c1.2-0.7,2.6-1,4.1-1c1.5,0,2.8,0.3,4,1c1.2,0.7,2.2,1.6,2.8,2.8s1,2.5,1,4c0,1.5-0.3,2.8-1,4s-1.6,2.1-2.8,2.8c-1.2,0.7-2.6,1-4,1
		C48.7,146.7,47.3,146.3,46.1,145.7z M53.6,144.8c1-0.6,1.8-1.4,2.4-2.4s0.9-2.2,0.9-3.4s-0.3-2.4-0.9-3.4c-0.6-1-1.4-1.8-2.4-2.4
		c-1-0.6-2.2-0.9-3.5-0.9c-1.3,0-2.4,0.3-3.5,0.9c-1,0.6-1.9,1.4-2.4,2.4c-0.6,1-0.9,2.2-0.9,3.4s0.3,2.4,0.9,3.4s1.4,1.8,2.4,2.4
		c1,0.6,2.2,0.9,3.5,0.9C51.4,145.7,52.6,145.4,53.6,144.8z"/>
	<path class="st2" d="M67.1,139.1l-3.4,3.5v4h-1.1v-15.2h1.1v9.8l9.5-9.8h1.4l-6.7,6.9l7.2,8.3h-1.4L67.1,139.1z"/>
	<path class="st2" d="M83.1,139.1l-3.4,3.5v4h-1.1v-15.2h1.1v9.8l9.5-9.8h1.4l-6.7,6.9l7.2,8.3h-1.4L83.1,139.1z"/>
	<path class="st2" d="M105,145.6v1H94.5v-15.2h10.2v1h-9.1v6h8.1v1h-8.1v6.2H105z"/>
	<path class="st2" d="M120.2,145.6v1h-10.5v-15.2h10.2v1h-9.1v6h8.1v1h-8.1v6.2H120.2z"/>
	<path class="st2" d="M134.9,132.7c1.1,0.9,1.6,2.2,1.6,3.8c0,1.6-0.5,2.8-1.6,3.8s-2.6,1.4-4.5,1.4h-4.4v5h-1.1v-15.2h5.5
		C132.3,131.3,133.8,131.8,134.9,132.7z M134.1,139.5c0.9-0.7,1.3-1.7,1.3-3c0-1.3-0.4-2.3-1.3-3.1c-0.9-0.7-2.1-1.1-3.7-1.1h-4.4
		v8.3h4.4C132,140.6,133.3,140.2,134.1,139.5z"/>
	<path class="st2" d="M140.9,131.3h1.1v15.2h-1.1V131.3z"/>
	<path class="st2" d="M160.4,131.3v15.2h-0.9l-10.4-13.2v13.2H148v-15.2h0.9l10.4,13.2v-13.2H160.4z"/>
	<path class="st2" d="M177.3,139h1.1v5.7c-0.7,0.6-1.5,1.1-2.4,1.5c-1,0.3-2,0.5-3,0.5c-1.5,0-2.9-0.3-4.1-1
		c-1.2-0.7-2.2-1.6-2.9-2.8c-0.7-1.2-1-2.5-1-4c0-1.5,0.3-2.8,1-4c0.7-1.2,1.6-2.1,2.9-2.8c1.2-0.7,2.6-1,4.1-1
		c1.1,0,2.1,0.2,3.1,0.5c0.9,0.4,1.7,0.9,2.4,1.6l-0.7,0.7c-0.6-0.6-1.4-1.1-2.1-1.4c-0.8-0.3-1.7-0.4-2.6-0.4
		c-1.3,0-2.5,0.3-3.5,0.9c-1.1,0.6-1.9,1.4-2.5,2.4c-0.6,1-0.9,2.2-0.9,3.4c0,1.2,0.3,2.4,0.9,3.4c0.6,1,1.4,1.8,2.5,2.4
		c1,0.6,2.2,0.9,3.5,0.9c1.7,0,3.2-0.5,4.3-1.4V139z"/>
	<path class="st2" d="M188.8,140.2h5.6v1h-5.6V140.2z"/>
	<path class="st2" d="M214.8,142.3h-8.8l-1.9,4.3h-1.2l7-15.2h1.1l7,15.2h-1.2L214.8,142.3z M214.3,141.3l-4-8.8l-4,8.8H214.3z"/>
	<path class="st2" d="M223.5,145.7c-1.2-0.7-2.1-1.6-2.8-2.8c-0.7-1.2-1-2.5-1-4c0-1.5,0.3-2.8,1-4c0.7-1.2,1.6-2.1,2.8-2.8
		c1.2-0.7,2.5-1,4-1c1.1,0,2.1,0.2,3,0.5c0.9,0.4,1.7,0.9,2.4,1.6l-0.7,0.7c-1.2-1.2-2.8-1.8-4.7-1.8c-1.3,0-2.4,0.3-3.5,0.9
		c-1,0.6-1.9,1.4-2.5,2.4c-0.6,1-0.9,2.2-0.9,3.4s0.3,2.4,0.9,3.4s1.4,1.8,2.5,2.4c1,0.6,2.2,0.9,3.5,0.9c1.9,0,3.4-0.6,4.7-1.8
		l0.7,0.7c-0.7,0.7-1.4,1.2-2.4,1.6c-0.9,0.4-1.9,0.5-3,0.5C226.1,146.7,224.7,146.3,223.5,145.7z"/>
	<path class="st2" d="M239.4,145.7c-1.2-0.7-2.1-1.6-2.8-2.8c-0.7-1.2-1-2.5-1-4c0-1.5,0.3-2.8,1-4c0.7-1.2,1.6-2.1,2.8-2.8
		c1.2-0.7,2.5-1,4-1c1.1,0,2.1,0.2,3,0.5c0.9,0.4,1.7,0.9,2.4,1.6l-0.7,0.7c-1.2-1.2-2.8-1.8-4.7-1.8c-1.3,0-2.4,0.3-3.5,0.9
		c-1,0.6-1.9,1.4-2.5,2.4c-0.6,1-0.9,2.2-0.9,3.4s0.3,2.4,0.9,3.4s1.4,1.8,2.5,2.4c1,0.6,2.2,0.9,3.5,0.9c1.9,0,3.4-0.6,4.7-1.8
		l0.7,0.7c-0.7,0.7-1.4,1.2-2.4,1.6c-0.9,0.4-1.9,0.5-3,0.5C242,146.7,240.6,146.3,239.4,145.7z"/>
	<path class="st2" d="M255.4,145.7c-1.2-0.7-2.2-1.6-2.8-2.8c-0.7-1.2-1-2.5-1-3.9c0-1.5,0.3-2.8,1-3.9c0.7-1.2,1.6-2.1,2.8-2.8
		c1.2-0.7,2.6-1,4.1-1c1.5,0,2.8,0.3,4,1c1.2,0.7,2.2,1.6,2.8,2.8s1,2.5,1,4c0,1.5-0.3,2.8-1,4s-1.6,2.1-2.8,2.8c-1.2,0.7-2.6,1-4,1
		C257.9,146.7,256.6,146.3,255.4,145.7z M262.9,144.8c1-0.6,1.8-1.4,2.4-2.4s0.9-2.2,0.9-3.4s-0.3-2.4-0.9-3.4
		c-0.6-1-1.4-1.8-2.4-2.4c-1-0.6-2.2-0.9-3.5-0.9c-1.3,0-2.4,0.3-3.5,0.9c-1,0.6-1.9,1.4-2.4,2.4c-0.6,1-0.9,2.2-0.9,3.4
		s0.3,2.4,0.9,3.4s1.4,1.8,2.4,2.4c1,0.6,2.2,0.9,3.5,0.9C260.7,145.7,261.9,145.4,262.9,144.8z"/>
	<path class="st2" d="M273.3,145c-1.1-1.1-1.6-2.8-1.6-4.9v-8.8h1.1v8.7c0,1.9,0.4,3.3,1.3,4.2c0.9,0.9,2.1,1.4,3.7,1.4
		c1.6,0,2.8-0.5,3.7-1.4c0.9-0.9,1.3-2.3,1.3-4.2v-8.7h1.1v8.8c0,2.1-0.5,3.8-1.6,4.9c-1.1,1.1-2.6,1.7-4.5,1.7
		C275.9,146.7,274.4,146.1,273.3,145z"/>
	<path class="st2" d="M302.2,131.3v15.2h-0.9l-10.4-13.2v13.2h-1.1v-15.2h0.9l10.4,13.2v-13.2H302.2z"/>
	<path class="st2" d="M311.1,132.3h-5.5v-1h12.1v1h-5.5v14.2h-1.1V132.3z"/>
	<path class="st2" d="M329.7,142.3h-8.8l-1.9,4.3h-1.2l7-15.2h1.1l7,15.2h-1.2L329.7,142.3z M329.3,141.3l-4-8.8l-4,8.8H329.3z"/>
	<path class="st2" d="M348.7,131.3v15.2h-0.9l-10.4-13.2v13.2h-1.1v-15.2h0.9l10.4,13.2v-13.2H348.7z"/>
	<path class="st2" d="M357.1,145.7c-1.2-0.7-2.1-1.6-2.8-2.8c-0.7-1.2-1-2.5-1-4c0-1.5,0.3-2.8,1-4c0.7-1.2,1.6-2.1,2.8-2.8
		c1.2-0.7,2.5-1,4-1c1.1,0,2.1,0.2,3,0.5c0.9,0.4,1.7,0.9,2.4,1.6l-0.7,0.7c-1.2-1.2-2.8-1.8-4.7-1.8c-1.3,0-2.4,0.3-3.5,0.9
		c-1,0.6-1.9,1.4-2.5,2.4c-0.6,1-0.9,2.2-0.9,3.4s0.3,2.4,0.9,3.4s1.4,1.8,2.5,2.4c1,0.6,2.2,0.9,3.5,0.9c1.9,0,3.4-0.6,4.7-1.8
		l0.7,0.7c-0.7,0.7-1.4,1.2-2.4,1.6c-0.9,0.4-1.9,0.5-3,0.5C359.6,146.7,358.3,146.3,357.1,145.7z"/>
	<path class="st2" d="M375.3,141.3v5.2h-1.1v-5.2l-6.1-10h1.2l5.5,9l5.5-9h1.2L375.3,141.3z"/>
	<path class="st2" d="M389.8,140.2h5.6v1h-5.6V140.2z"/>
	<path class="st2" d="M409.2,132.3h-5.5v-1h12.1v1h-5.5v14.2h-1.1V132.3z"/>
	<path class="st2" d="M427.8,142.3H419l-1.9,4.3h-1.2l7-15.2h1.1l7,15.2h-1.2L427.8,142.3z M427.4,141.3l-4-8.8l-4,8.8H427.4z"/>
	<path class="st2" d="M443.3,146.6l-5.2-7.1l-5.2,7.1h-1.3l5.9-7.9l-5.4-7.4h1.3l4.9,6.6l4.9-6.6h1.2l-5.4,7.4l5.9,7.9H443.3z"/>
	<path class="st2" d="M457.1,142.3h-8.8l-1.9,4.3h-1.2l7-15.2h1.1l7,15.2h-1.2L457.1,142.3z M456.7,141.3l-4-8.8l-4,8.8H456.7z"/>
	<path class="st2" d="M465.9,132.3h-5.5v-1h12.1v1H467v14.2h-1.1V132.3z"/>
	<path class="st2" d="M475.9,131.3h1.1v15.2h-1.1V131.3z"/>
	<path class="st2" d="M485.3,145.7c-1.2-0.7-2.2-1.6-2.8-2.8c-0.7-1.2-1-2.5-1-3.9c0-1.5,0.3-2.8,1-3.9c0.7-1.2,1.6-2.1,2.8-2.8
		c1.2-0.7,2.6-1,4.1-1c1.5,0,2.8,0.3,4,1c1.2,0.7,2.2,1.6,2.8,2.8s1,2.5,1,4c0,1.5-0.3,2.8-1,4s-1.6,2.1-2.8,2.8c-1.2,0.7-2.6,1-4,1
		C487.9,146.7,486.6,146.3,485.3,145.7z M492.9,144.8c1-0.6,1.8-1.4,2.4-2.4s0.9-2.2,0.9-3.4s-0.3-2.4-0.9-3.4
		c-0.6-1-1.4-1.8-2.4-2.4c-1-0.6-2.2-0.9-3.5-0.9c-1.3,0-2.4,0.3-3.5,0.9c-1,0.6-1.9,1.4-2.4,2.4c-0.6,1-0.9,2.2-0.9,3.4
		s0.3,2.4,0.9,3.4s1.4,1.8,2.4,2.4c1,0.6,2.2,0.9,3.5,0.9C490.7,145.7,491.8,145.4,492.9,144.8z"/>
	<path class="st2" d="M514.2,131.3v15.2h-0.9l-10.4-13.2v13.2h-1.1v-15.2h0.9l10.4,13.2v-13.2H514.2z"/>
	<path class="st2" d="M527.3,146.1c-1-0.4-1.8-0.9-2.4-1.5l0.5-0.8c0.5,0.6,1.3,1,2.2,1.4s1.9,0.5,2.9,0.5c1.5,0,2.5-0.3,3.3-0.8
		s1.1-1.3,1.1-2.2c0-0.7-0.2-1.2-0.6-1.6c-0.4-0.4-0.9-0.7-1.5-0.9c-0.6-0.2-1.4-0.4-2.4-0.7c-1.1-0.3-2-0.5-2.7-0.8
		c-0.7-0.3-1.2-0.7-1.7-1.2c-0.5-0.5-0.7-1.3-0.7-2.2c0-0.7,0.2-1.4,0.6-2c0.4-0.6,1-1.1,1.8-1.5c0.8-0.4,1.8-0.5,3-0.5
		c0.8,0,1.7,0.1,2.5,0.4s1.5,0.6,2.1,1l-0.4,0.9c-0.6-0.4-1.3-0.7-2-1c-0.7-0.2-1.5-0.3-2.2-0.3c-1.4,0-2.5,0.3-3.2,0.8
		c-0.7,0.6-1.1,1.3-1.1,2.2c0,0.7,0.2,1.2,0.6,1.6s0.9,0.7,1.5,0.9c0.6,0.2,1.4,0.5,2.4,0.7c1.1,0.3,2,0.5,2.7,0.8
		c0.7,0.3,1.2,0.7,1.7,1.2c0.5,0.5,0.7,1.2,0.7,2.1c0,0.7-0.2,1.4-0.6,2s-1,1.1-1.8,1.5c-0.8,0.4-1.8,0.5-3,0.5
		C529.3,146.7,528.3,146.5,527.3,146.1z"/>
	<path class="st2" d="M550.9,145.6v1h-10.5v-15.2h10.2v1h-9.1v6h8.1v1h-8.1v6.2H550.9z"/>
	<path class="st2" d="M566.2,146.6l-3.6-5.1c-0.5,0.1-1,0.1-1.5,0.1h-4.4v5h-1.1v-15.2h5.5c1.9,0,3.4,0.5,4.5,1.4s1.6,2.2,1.6,3.8
		c0,1.2-0.3,2.2-0.9,3c-0.6,0.8-1.5,1.4-2.6,1.7l3.8,5.3H566.2z M561.1,140.6c1.6,0,2.9-0.4,3.7-1.1s1.3-1.7,1.3-3.1
		c0-1.3-0.4-2.3-1.3-3.1c-0.9-0.7-2.1-1.1-3.7-1.1h-4.4v8.3H561.1z"/>
	<path class="st2" d="M584.1,131.3l-6.8,15.2h-1.1l-6.8-15.2h1.2l6.2,13.8l6.2-13.8H584.1z"/>
	<path class="st2" d="M587.2,131.3h1.1v15.2h-1.1V131.3z"/>
	<path class="st2" d="M596.7,145.7c-1.2-0.7-2.1-1.6-2.8-2.8s-1-2.5-1-4c0-1.5,0.3-2.8,1-4s1.6-2.1,2.8-2.8c1.2-0.7,2.5-1,4-1
		c1.1,0,2.1,0.2,3,0.5c0.9,0.4,1.7,0.9,2.4,1.6l-0.7,0.7c-1.2-1.2-2.8-1.8-4.7-1.8c-1.3,0-2.4,0.3-3.5,0.9c-1,0.6-1.9,1.4-2.5,2.4
		c-0.6,1-0.9,2.2-0.9,3.4s0.3,2.4,0.9,3.4c0.6,1,1.4,1.8,2.5,2.4c1,0.6,2.2,0.9,3.5,0.9c1.9,0,3.4-0.6,4.7-1.8l0.7,0.7
		c-0.7,0.7-1.4,1.2-2.4,1.6c-0.9,0.4-1.9,0.5-3,0.5C599.2,146.7,597.9,146.3,596.7,145.7z"/>
	<path class="st2" d="M621,145.6v1h-10.5v-15.2h10.2v1h-9.1v6h8.1v1h-8.1v6.2H621z"/>
	<path class="st2" d="M626.6,146.1c-1-0.4-1.8-0.9-2.4-1.5l0.5-0.8c0.5,0.6,1.3,1,2.2,1.4s1.9,0.5,2.9,0.5c1.5,0,2.5-0.3,3.3-0.8
		s1.1-1.3,1.1-2.2c0-0.7-0.2-1.2-0.6-1.6c-0.4-0.4-0.9-0.7-1.5-0.9c-0.6-0.2-1.4-0.4-2.4-0.7c-1.1-0.3-2-0.5-2.7-0.8
		c-0.7-0.3-1.2-0.7-1.7-1.2c-0.5-0.5-0.7-1.3-0.7-2.2c0-0.7,0.2-1.4,0.6-2c0.4-0.6,1-1.1,1.8-1.5c0.8-0.4,1.8-0.5,3-0.5
		c0.8,0,1.7,0.1,2.5,0.4s1.5,0.6,2.1,1l-0.4,0.9c-0.6-0.4-1.3-0.7-2-1c-0.7-0.2-1.5-0.3-2.2-0.3c-1.4,0-2.5,0.3-3.2,0.8
		c-0.7,0.6-1.1,1.3-1.1,2.2c0,0.7,0.2,1.2,0.6,1.6s0.9,0.7,1.5,0.9c0.6,0.2,1.4,0.5,2.4,0.7c1.1,0.3,2,0.5,2.7,0.8
		c0.7,0.3,1.2,0.7,1.7,1.2c0.5,0.5,0.7,1.2,0.7,2.1c0,0.7-0.2,1.4-0.6,2s-1,1.1-1.8,1.5c-0.8,0.4-1.8,0.5-3,0.5
		C628.6,146.7,627.6,146.5,626.6,146.1z"/>
</g>
<g>
	<g>
		<path class="st3" d="M787.5,37.4c0,9.6,0,19.1,0,28.7c0,0.8-0.2,1.1-1.1,1.1c-19.1,0-38.2,0-57.3,0c-0.9,0-1.1-0.3-1.1-1.1
			c0-19.1,0-38.2,0-57.3c0-0.9,0.2-1.1,1.1-1.1c19.1,0,38.2,0,57.3,0c0.9,0,1.1,0.2,1.1,1.1C787.5,18.3,787.5,27.9,787.5,37.4z
			 M757.8,32.5c-6.3,0-12.6,0-18.9,0c-0.6,0-0.9,0.1-0.9,0.8c0,2.8,0,5.6,0,8.3c0,0.6,0.2,0.8,0.8,0.8c12.7,0,25.5,0,38.2,0
			c0.6,0,0.8-0.2,0.8-0.8c0-2.7,0-5.4,0-8.1c0-0.8-0.2-1-1-1C770.4,32.5,764.1,32.5,757.8,32.5z"/>
		<path class="st4" d="M757.9,87.1c9.5,0,19,0,28.6,0c0.9,0,1.1,0.2,1.1,1.1c0,19.1,0,38.2,0,57.3c0,0.9-0.2,1.1-1.1,1.1
			c-19.1,0-38.2,0-57.3,0c-0.9,0-1.1-0.2-1.1-1.1c0-19.1,0-38.2,0-57.3c0-0.9,0.2-1.1,1.1-1.1C738.7,87.1,748.3,87.1,757.9,87.1z
			 M768.4,134.2c0.2-0.2,0.4-0.3,0.6-0.5c1.9-1.9,3.8-3.8,5.7-5.7c0.5-0.5,0.6-0.8,0-1.4c-3.1-3-6.1-6.1-9.2-9.1
			c-0.6-0.5-0.6-0.8,0-1.4c3.1-3,6.1-6.1,9.2-9.2c0.5-0.5,0.6-0.8,0-1.3c-2-1.9-3.9-3.8-5.7-5.7c-0.5-0.5-0.8-0.6-1.3,0
			c-3,3.1-6.1,6.1-9.2,9.2c-0.6,0.6-0.9,0.5-1.4,0c-3-3.1-6.1-6.1-9.1-9.2c-0.5-0.5-0.8-0.5-1.3,0c-1.9,1.9-3.8,3.9-5.8,5.8
			c-0.5,0.5-0.5,0.7,0,1.2c3.1,3,6,6.1,9.1,9.1c0.8,0.8,0.6,1.1,0,1.8c-3.1,3-6.1,6.1-9.1,9.1c-0.4,0.4-0.5,0.6,0,1.1
			c2,1.9,3.9,3.8,5.8,5.8c0.6,0.6,0.9,0.5,1.5-0.1c3-3,6-6,9-9.1c0.5-0.6,0.8-0.7,1.5,0c3,3.1,6,6.1,9.1,9.1
			C767.9,133.8,768,134.1,768.4,134.2z"/>
		<path class="st1" d="M708.2,37.4c0,9.6,0,19.1,0,28.7c0,0.8-0.2,1.1-1.1,1.1c-19.1,0-38.2,0-57.3,0c-0.9,0-1.1-0.3-1.1-1.1
			c0-19.1,0-38.2,0-57.2c0-0.9,0.2-1.1,1.1-1.1c19.1,0,38.2,0,57.3,0c0.9,0,1.1,0.2,1.1,1.1C708.2,18.3,708.2,27.9,708.2,37.4z
			 M673.5,49.8c0,2.2,0,4.4,0,6.6c0,0.7,0.2,0.9,0.9,0.9c2.7,0,5.4-0.1,8.1,0c0.8,0,1-0.3,0.9-1c0-4.3,0-8.7,0-13
			c0-0.8,0.2-0.9,0.9-0.9c4.4,0,8.7,0,13.1,0c0.7,0,0.9-0.2,0.9-0.9c0-2.7-0.1-5.4,0-8.1c0-0.8-0.3-1-1-0.9c-4.3,0-8.7,0-13,0
			c-0.8,0-0.9-0.2-0.9-0.9c0-4.4,0-8.7,0-13.1c0-0.7-0.2-0.9-0.9-0.9c-2.7,0-5.4,0.1-8.1,0c-0.8,0-1,0.3-0.9,1c0,4.3,0,8.7,0,13
			c0,0.8-0.2,0.9-0.9,0.9c-4.4,0-8.7,0-13.1,0c-0.7,0-0.9,0.2-0.9,0.9c0,2.6,0.1,5.3,0,7.9c0,0.9,0.2,1.2,1.1,1.2
			c4.3-0.1,8.6,0,12.9,0c0.8,0,0.9,0.2,0.9,0.9C673.4,45.5,673.5,47.6,673.5,49.8z"/>
		<path class="st2" d="M678.4,87.1c9.6,0,19.1,0,28.7,0c0.9,0,1.1,0.2,1.1,1.1c0,19.1,0,38.2,0,57.3c0,0.9-0.2,1.1-1.1,1.1
			c-19.1,0-38.2,0-57.3,0c-0.9,0-1.1-0.2-1.1-1.1c0-19.1,0-38.2,0-57.3c0-0.9,0.2-1.1,1.1-1.1C659.3,87.1,668.9,87.1,678.4,87.1z
			 M698.3,104.4c-0.2-0.2-0.3-0.4-0.5-0.6c-2.3-2.3-4.7-4.7-7-7c-0.5-0.6-0.8-0.5-1.3,0c-10.5,10.6-21.1,21.1-31.7,31.7
			c-0.6,0.6-0.5,0.8,0,1.3c2.3,2.3,4.7,4.6,6.9,6.9c0.6,0.6,0.9,0.5,1.4,0c4.6-4.6,9.2-9.2,13.8-13.8c5.9-5.9,11.8-11.8,17.7-17.7
			C697.9,105,698.2,104.8,698.3,104.4z M664,95c-4.3,0-7.9,3.5-8,7.8c0,4.5,3.5,8.1,7.9,8.1c4.3,0,7.9-3.5,8-7.8
			C671.9,98.6,668.4,95,664,95z M699.6,130.7c0-4.4-3.5-7.9-7.9-8c-4.4,0-8,3.6-8,7.9c0,4.4,3.5,8,7.9,8
			C696.1,138.7,699.6,135.1,699.6,130.7z"/>
		<path class="st2" d="M667.9,103c0,2.2-1.8,4-4,3.9c-2.2,0-4-1.8-3.9-4c0-2.2,1.8-4,4-3.9C666.1,99,667.9,100.8,667.9,103z"/>
		<path class="st2" d="M695.7,130.7c0,2.3-1.7,4-4,4c-2.2,0-3.9-1.7-3.9-4c0-2.3,1.7-4,4-4C694,126.7,695.7,128.5,695.7,130.7z"/>
	</g>
</g>
</svg>
